<svg width="150" height="48" viewBox="0 0 158 48" fill="none" xmlns="http://www.w3.org/2000/svg"><path d="M41.5215 30.4292L46.1277 18.3525H47.9047L52.4936 30.4292H50.8891L49.6124 27.1684H44.3509L43.0742 30.4292H41.5215ZM44.7995 25.8054H49.1645L46.9734 19.9916L44.7995 25.8054Z" fill="#6322E5"></path><path d="M59.1609 21.6309H60.5756V30.4295H59.3506L59.1609 29.2563C58.6433 29.9119 57.7979 30.533 56.3487 30.533C54.4164 30.533 52.8809 29.4464 52.8809 26.5307V21.6309H54.2956V26.4444C54.2956 28.2729 55.1237 29.2393 56.5902 29.2393C58.1947 29.2393 59.1609 28.0144 59.1609 26.0303V21.6309Z" fill="#6322E5"></path><path d="M62.8389 22.9242H61.252V21.6302H62.8389V19.1631H64.2536V21.6302H66.531V22.9242H64.2536V28.1173C64.2536 28.8589 64.5124 29.1352 65.2715 29.1352H66.669V30.4292H65.1335C63.4428 30.4292 62.8389 29.6873 62.8389 28.1345V22.9242Z" fill="#6322E5"></path><path d="M75.3279 25.5294V30.4292H73.9131V25.6157C73.9131 23.7872 73.0333 22.8207 71.515 22.8207C69.876 22.8207 68.8581 24.0454 68.8581 26.0294V30.4289H67.4434V18.3525H68.8581V23.0798C69.3757 22.2517 70.2728 21.5268 71.7565 21.5268C73.7234 21.5268 75.3279 22.6137 75.3279 25.5294Z" fill="#6322E5"></path><path d="M76.6426 24.115C76.6426 20.6817 78.5059 18.249 81.2315 18.249C83.9402 18.249 85.8035 20.6817 85.8035 24.115V24.6671C85.8035 28.2726 83.9402 30.5327 81.2315 30.5327C78.5059 30.5327 76.6426 28.2726 76.6426 24.6671V24.115ZM84.337 24.1667C84.337 21.3028 83.0948 19.5775 81.2315 19.5775C79.3513 19.5775 78.1091 21.3028 78.1091 24.1667V24.6153C78.1091 27.4793 79.3513 29.2045 81.2315 29.2045C83.0951 29.2045 84.337 27.4793 84.337 24.6153V24.1667Z" fill="#6322E5"></path><path d="M100.174 26.0297C100.174 28.7212 98.38 30.5327 95.9473 30.5327C94.4636 30.5327 93.4629 29.9292 92.9284 29.0838L92.7383 30.4292H91.5137V18.3525H92.9284V23.045C93.515 22.2338 94.4636 21.5268 95.9473 21.5268C98.3797 21.5268 100.174 23.1661 100.174 26.0297ZM98.7247 26.0297C98.7247 24.1147 97.5515 22.7865 95.809 22.7865C94.0837 22.7865 92.9106 24.115 92.9106 25.9955C92.9106 27.9275 94.0837 29.2736 95.809 29.2736C97.5515 29.2733 98.7247 27.9448 98.7247 26.0297Z" fill="#6322E5"></path><path d="M100.119 21.6307H101.62L104.329 28.6523L106.951 21.6307H108.452L104.398 31.9131C103.846 33.3278 103.518 33.8796 102.276 33.8796H100.585V32.5857H101.844C102.655 32.5857 102.793 32.3786 103.121 31.5505L103.552 30.4808L100.119 21.6307Z" fill="#6322E5"></path><path d="M119.026 30.5334C115.627 30.5334 113.264 27.9458 113.264 24.3917C113.264 20.8379 115.627 18.25 119.026 18.25C122.425 18.25 124.788 20.8379 124.788 24.3917C124.788 27.9455 122.425 30.5334 119.026 30.5334ZM119.026 29.1532C121.545 29.1532 123.253 27.1691 123.253 24.3914C123.253 21.6137 121.545 19.6296 119.026 19.6296C116.507 19.6296 114.799 21.6137 114.799 24.3914C114.799 27.1691 116.507 29.1532 119.026 29.1532Z" fill="#6322E5"></path><path d="M126.201 18.3525H127.616V26.3058L132.033 21.6303H133.775L130.342 25.2703L134.017 30.4289H132.309L129.393 26.2882L127.616 28.117V30.4286H126.201V18.3525H126.201Z" fill="#6322E5"></path><path d="M135.722 22.9242H134.135V21.6302H135.722V19.1631H137.137V21.6302H139.414V22.9242H137.137V28.1173C137.137 28.8589 137.395 29.1352 138.155 29.1352H139.552V30.4292H138.016C136.326 30.4292 135.722 29.6873 135.722 28.1345V22.9242Z" fill="#6322E5"></path><path d="M148.637 29.1358V30.4298H147.861C146.688 30.4298 146.291 29.9294 146.274 29.0668C145.722 29.8604 144.842 30.5333 143.324 30.5333C141.391 30.5333 140.08 29.5671 140.08 27.9626C140.08 26.2028 141.305 25.2194 143.617 25.2194H146.205V24.6156C146.205 23.4772 145.394 22.7871 144.014 22.7871C142.772 22.7871 141.943 23.3737 141.771 24.2708H140.356C140.563 22.5453 141.961 21.5273 144.083 21.5273C146.326 21.5273 147.62 22.6491 147.62 24.7019V28.5492C147.62 29.0151 147.792 29.1361 148.189 29.1361L148.637 29.1358ZM146.205 26.4099H143.479C142.22 26.4099 141.512 26.8757 141.512 27.8764C141.512 28.739 142.254 29.3256 143.427 29.3256C145.187 29.3256 146.205 28.3077 146.205 26.8412V26.4099H146.205Z" fill="#6322E5"></path><path d="M10.9416 22.3882C15.7991 21.588 19.6037 17.5722 20.4038 12.7177L20.6716 10.3826C20.737 10.0108 20.4871 9.49616 20.0171 9.53185C16.3465 9.81741 12.887 11.0281 10.9565 11.8164C10.0016 12.206 9.37695 13.1371 9.37695 14.1693V21.7843C9.37695 22.2364 9.7815 22.5785 10.2277 22.5071L10.9416 22.3911V22.3882Z" fill="#6322E5"></path><path d="M22.7455 12.7149C23.5457 17.5725 27.3502 21.5853 32.2078 22.3854L32.9217 22.5014C33.3679 22.5758 33.7724 22.2308 33.7724 21.7786V14.1636C33.7724 13.1314 33.1477 12.2033 32.1929 11.8107C30.2653 11.0224 26.8029 9.81172 23.1322 9.52616C22.6622 9.49046 22.4183 10.011 22.4748 10.3769L22.7425 12.712L22.7455 12.7149Z" fill="#6322E5"></path><path d="M32.2044 24.5181C25.568 25.8269 22.4863 30.2383 22.4863 38.591C22.4863 39.0105 22.9028 39.299 23.2508 39.067C26.3028 37.0085 33.0194 31.6364 33.7125 24.9137C33.7393 24.066 32.6803 24.4646 32.2044 24.5181Z" fill="#6322E5"></path><path d="M10.9439 24.5182C17.5803 25.827 20.662 30.2384 20.662 38.5911C20.662 39.0105 20.2455 39.299 19.8975 39.067C16.8456 37.0086 10.1289 31.6364 9.4358 24.9138C9.40903 24.066 10.468 24.4646 10.9439 24.5182Z" fill="#6322E5"></path></svg>
