<svg id="icon-brand-logo-myfico" xmlns="http://www.w3.org/2000/svg" viewBox="0 0 821 227">
 <g fill="currentColor" fill-rule="evenodd">
   <path d="M806.14 10.2h2.82c.7 0 1.23.19 1.62.57.38.39.57.87.57 1.45 0 .57-.2 1.04-.57 1.4-.39.37-.93.56-1.62.56h-2.82V10.2Zm5.88 4.67c.76-.7 1.15-1.6 1.15-2.71a3.5 3.5 0 0 0-1.15-2.68 4.24 4.24 0 0 0-3-1.07h-4.9v13.2h2.02v-5.7h.88l4.65 5.7h2.48l-4.81-5.73a4.2 4.2 0 0 0 2.68-1.01Zm5.62 5.88a10.14 10.14 0 0 1-3.78 3.92 10.72 10.72 0 0 1-5.6 1.44 10.2 10.2 0 0 1-9.25-5.36 11.46 11.46 0 0 1-1.35-5.6c0-2.03.45-3.86 1.36-5.47a10.32 10.32 0 0 1 9.25-5.3c2.11 0 3.98.47 5.6 1.44 1.6.96 2.87 2.24 3.77 3.86.9 1.61 1.35 3.44 1.35 5.48 0 2.07-.45 3.94-1.35 5.59Zm1.53-11.88a12.23 12.23 0 0 0-4.41-4.5 12.4 12.4 0 0 0-6.5-1.67c-2.41 0-4.56.55-6.42 1.65a11.57 11.57 0 0 0-4.35 4.46 12.9 12.9 0 0 0-1.56 6.35c0 2.34.53 4.47 1.59 6.4a11.86 11.86 0 0 0 10.8 6.22c2.47 0 4.62-.55 6.46-1.67a12.23 12.23 0 0 0 4.39-4.53 12.71 12.71 0 0 0 1.61-6.37c0-2.34-.54-4.46-1.61-6.34ZM433.54 4.12v37.06h-86.48v37.06h74.13v37.05h-74.13v61.76H310V4.12h123.54Zm11.55 172.93h37.06V4.1H445.1v172.94Zm139.5-34.61a53 53 0 0 1 0-106 52.82 52.82 0 0 1 36.1 14.2 106.99 106.99 0 0 1 18.8-31.56A88.87 88.87 0 0 0 584.59.16a89.26 89.26 0 0 0-89.26 89.27 89.25 89.25 0 0 0 144.85 69.82 107.37 107.37 0 0 1-19.12-31.4 52.8 52.8 0 0 1-36.47 14.59Zm225.19-52.92a89.26 89.26 0 0 1-89.26 89.26 89.25 89.25 0 0 1-89.26-89.26A89.26 89.26 0 0 1 720.52.26a89.26 89.26 0 0 1 89.26 89.26Zm-36.26 0a53 53 0 1 0-106 .01 53 53 0 0 0 106 0Z"/>
  <path fill-rule="nonzero" d="M0 177.05V59.08h17.7v117.97H0Zm81.2 0v-72.29c0-9.7-2.93-17.42-8.8-23.15-5.85-5.74-13.25-8.6-22.2-8.6-6.03 0-11.49 1.3-16.38 3.89-4.9 2.6-8.8 6.23-11.74 10.92-2.92 4.68-4.39 10.25-4.39 16.69l-8.03-3.14c0-9.03 1.99-16.9 5.96-23.6a41.8 41.8 0 0 1 16.19-15.62c6.82-3.72 14.45-5.58 22.9-5.58 8.37 0 15.88 1.84 22.53 5.52a40.95 40.95 0 0 1 15.81 15.56c3.9 6.7 5.84 14.64 5.84 23.85v75.55h-17.7Zm81.2 0v-72.29c0-9.7-2.94-17.42-8.8-23.15-5.85-5.74-13.25-8.6-22.2-8.6-5.95 0-11.38 1.3-16.32 3.89a30.25 30.25 0 0 0-11.8 10.92c-2.93 4.68-4.4 10.25-4.4 16.69l-10.4-3.14c.41-9.12 2.75-17 7.02-23.66a44.85 44.85 0 0 1 16.82-15.56 47.83 47.83 0 0 1 22.96-5.58c8.45 0 16.05 1.84 22.78 5.52a41.46 41.46 0 0 1 16.07 15.62c3.97 6.74 5.96 14.7 5.96 23.91v75.43h-17.7Zm70.03.63L180.6 59.08h19.45l41.66 98.9h-7.28l43.8-98.9h19.58l-55.34 118.6h-10.04Zm-32.26 49.07 32.5-66.9 9.8 17.83-22.84 49.07h-19.46Z"/>
   </g>
</svg>
