<?xml version="1.0" encoding="utf-8"?>
<!-- Generator: Adobe Illustrator 28.0.0, SVG Export Plug-In . SVG Version: 6.00 Build 0)  -->
<svg version="1.1" id="Layer_1" xmlns="http://www.w3.org/2000/svg" xmlns:xlink="http://www.w3.org/1999/xlink" x="0px" y="0px"
	 viewBox="0 0 300 300" style="enable-background:new 0 0 300 300;" xml:space="preserve">
<g>
	<g>
		<g>
			<path d="M102.4,126.8V149h23.1c-1.2,2.2-2.9,4.1-5.1,5.7c-4.3,3.2-10.4,5.1-16.3,5.1c-18.2,0-28-14.6-28-28.4
				c0-17.8,14.5-32.3,32.3-32.3c9.7,0,18.7,4.3,24.9,11.7l17.1-14.1c-10.4-12.6-25.7-19.8-42-19.8c-30,0-54.5,24.4-54.5,54.5
				c0,28.4,22,50.6,50.2,50.6c10.7,0,21.5-3.5,29.6-9.6c2.1-1.5,4.3-3.5,6.3-5.8v20h22.2v-59.9H102.4z"/>
			<path d="M140.1,126.8h22.8l27.7,59.9l27.7-59.9h22.8v91.8h-22.2V169L198,213.2h-14.9L162.3,169v49.6h-22.2V126.8z"/>
		</g>
		<g>
			<path d="M11.4,127.3C22.4,60.4,80.6,9.2,150.6,9.2s128.2,51.2,139.2,118.1h6.3C285,57,224,3,150.6,3S16.2,57,5.1,127.3H11.4z"/>
			<path d="M289.8,173.2c-11,66.9-69.2,118.1-139.2,118.1S22.4,240.2,11.4,173.2H5.1c11.1,70.4,72.1,124.3,145.5,124.3
				s134.4-54,145.5-124.3H289.8z"/>
		</g>
		<circle cx="6.5" cy="149.9" r="4.5"/>
		<circle cx="294.5" cy="149.9" r="4.5"/>
	</g>
</g>
</svg>
