<?xml version="1.0" encoding="utf-8"?>
<!-- Generator: Adobe Illustrator 28.0.0, SVG Export Plug-In . SVG Version: 6.00 Build 0)  -->
<svg version="1.1" id="Layer_1" xmlns="http://www.w3.org/2000/svg" xmlns:xlink="http://www.w3.org/1999/xlink" x="0px" y="0px"
	 viewBox="0 0 410.1 114.9" style="enable-background:new 0 0 410.1 114.9;" xml:space="preserve">
<style type="text/css">
	.st0{display:none;fill:#FFFFFF;}
</style>
<g>
	<g>
		<path d="M150.3,28.3h13.9l16.9,36.6L198,28.3h13.9v56h-13.6V54l-12.7,27h-9.1l-12.7-27v30.3h-13.6V28.3z"/>
		<path d="M226.8,56.3c0-16.2,13-28.8,29.2-28.8s29.3,12.7,29.3,28.8c0,15.7-12.7,28.9-29.3,28.9C240.2,85.1,226.8,72.9,226.8,56.3z
			 M240.7,56.3c0,9,6.2,15.8,15.3,15.8c8.6,0,15.4-6.3,15.4-15.8c0-9.1-6.6-15.6-15.4-15.6C247.3,40.6,240.7,47.2,240.7,56.3z"/>
		<path d="M76.9,56.3c0-16.2,13-28.8,29.2-28.8s29.3,12.7,29.3,28.8c0,15.7-12.7,28.9-29.3,28.9C90.3,85.1,76.9,72.9,76.9,56.3z
			 M90.9,56.3c0,9,6.2,15.8,15.3,15.8c8.6,0,15.4-6.3,15.4-15.8c0-9.1-6.6-15.6-15.4-15.6C97.4,40.6,90.9,47.2,90.9,56.3z"/>
		<path d="M300.1,84.3v-56h24.5c15.8,0,28.5,12.5,28.5,28c0,15.5-12.7,28.1-28.5,28.1H300.1z M323.3,72.9c9.4,0,15.8-7.6,15.8-16.7
			c0-9.1-6.4-16.5-15.8-16.5h-9.6v33.2H323.3z"/>
		<path d="M368,28.3h39.7v11.4h-26.2v10.4h22.9v11.4h-22.9v11.4h26.6v11.4H368V28.3z"/>
		<path class="st0" d="M28.9,54.9v12.3h12.8c-0.7,1.2-1.6,2.3-2.8,3.2c-2.4,1.8-5.8,2.8-9,2.8c-10.1,0-15.5-8.1-15.5-15.7
			c0-9.9,8-17.9,17.9-17.9c5.4,0,10.4,2.4,13.8,6.5l9.5-7.8c-5.8-7-14.2-11-23.3-11c-16.6,0-30.2,13.5-30.2,30.2
			c0,15.7,12.2,28.1,27.8,28.1c5.9,0,11.9-1.9,16.4-5.3c1.1-0.9,2.4-1.9,3.5-3.2v11.1h12.3V54.9H28.9z"/>
		<g>
			<path d="M32.3,27.6c10.3,0,19.4,5.5,24.1,12.6L46,47.9c-2.6-3.7-6.9-7.6-13.7-7.6c-9.4,0-15.7,6.8-15.7,16.1
				c0,9.4,6.2,16.2,15.7,16.2c6.3,0,11.8-2.6,13.5-7.9H31V53.3h29.3c0.2,1.6,0.2,3.6,0.2,5.9c0,15.2-12.4,26.2-28.2,26.2
				c-16.7,0-29.6-12.5-29.6-29C2.7,39.9,15.7,27.6,32.3,27.6z"/>
		</g>
	</g>
</g>
</svg>
