<?xml version="1.0" encoding="utf-8"?>
<!-- Generator: Adobe Illustrator 28.0.0, SVG Export Plug-In . SVG Version: 6.00 Build 0)  -->
<svg version="1.1" id="Layer_1" xmlns="http://www.w3.org/2000/svg" xmlns:xlink="http://www.w3.org/1999/xlink" x="0px" y="0px"
	 viewBox="0 0 410.1 114.9" style="enable-background:new 0 0 410.1 114.9;" xml:space="preserve">
<style type="text/css">
	.st0{display:none;fill:#FFFFFF;}
	.st1{fill:none;stroke:#000000;stroke-width:4;stroke-miterlimit:10;}
</style>
<g>
	<g>
		<path d="M160.5,32.7h11.8l14.4,31.1l14.4-31.1h11.8v47.6h-11.5V54.6l-10.8,22.9h-7.7l-10.8-22.9v25.7h-11.5V32.7z"/>
		<path d="M225.5,56.5c0-13.7,11.1-24.5,24.9-24.5s24.9,10.8,24.9,24.5c0,13.4-10.8,24.5-24.9,24.5C236.9,81,225.5,70.6,225.5,56.5z
			 M237.4,56.5c0,7.6,5.3,13.4,13,13.4c7.3,0,13.1-5.4,13.1-13.4c0-7.7-5.6-13.3-13.1-13.3C242.9,43.2,237.4,48.8,237.4,56.5z"/>
		<path d="M98.2,56.5C98.2,42.7,109.3,32,123,32s24.9,10.8,24.9,24.5c0,13.4-10.8,24.5-24.9,24.5C109.6,81,98.2,70.6,98.2,56.5z
			 M110,56.5c0,7.6,5.3,13.4,13,13.4c7.3,0,13.1-5.4,13.1-13.4c0-7.7-5.6-13.3-13.1-13.3C115.6,43.2,110,48.8,110,56.5z"/>
		<path d="M287.9,80.3V32.7h20.8c13.5,0,24.3,10.6,24.3,23.8c0,13.1-10.8,23.8-24.3,23.8H287.9z M307.6,70.6c8,0,13.5-6.5,13.5-14.2
			c0-7.7-5.5-14.1-13.5-14.1h-8.2v28.2H307.6z"/>
		<path d="M345.6,32.7h33.8v9.7h-22.2v8.8h19.5v9.7h-19.5v9.7h22.6v9.7h-34.1V32.7z"/>
		<path class="st0" d="M57.4,55.3v10.5h10.9c-0.6,1-1.4,1.9-2.4,2.7c-2,1.5-4.9,2.4-7.7,2.4C49.6,70.9,45,64,45,57.5
			c0-8.4,6.8-15.2,15.2-15.2c4.5,0,8.8,2,11.7,5.5l8.1-6.7c-4.9-5.9-12.1-9.3-19.8-9.3c-14.1,0-25.6,11.5-25.6,25.6
			c0,13.4,10.4,23.8,23.6,23.8c5,0,10.1-1.6,13.9-4.5c1-0.7,2-1.6,3-2.7v9.4h10.5V55.3H57.4z"/>
		<g>
			<path d="M60.3,32.1c8.7,0,16.5,4.7,20.5,10.7l-8.9,6.6c-2.2-3.2-5.9-6.5-11.6-6.5c-8,0-13.3,5.8-13.3,13.7
				c0,8,5.3,13.8,13.3,13.8c5.4,0,10-2.3,11.5-6.8H59.1V54H84c0.1,1.4,0.2,3,0.2,5c0,12.9-10.6,22.3-24,22.3
				c-14.2,0-25.2-10.6-25.2-24.6C35.1,42.6,46.1,32.1,60.3,32.1z"/>
		</g>
	</g>
	<rect x="4" y="6.7" class="st1" width="402.1" height="103.6"/>
</g>
</svg>
