<svg data-v-cbee17c2="" data-v-dbfc14e4="" xmlns="http://www.w3.org/2000/svg" width="72" height="56" fill="none" viewBox="0 0 72 56" class="svg-icon svg-icon--red-tab-logo logo--levi" aria-hidden="true" id="svg-title--red-tab-logo" style="width: 72px; height: 56px;"><title>Levi Red Tab Member Logo</title><desc>This is the logo of the Levi Red Tab Member Program</desc><path fill="#000" d="M68.126 36.06h-.713v2.267h-.692v-2.268h-.708v-.614h2.113zm3.484 2.267h-.647v-1.743a4 4 0 0 1-.13.277l-.745 1.466-.737-1.466c-.04-.085-.082-.191-.118-.268v1.733h-.648v-2.849h.684l.61 1.221q.125.226.2.472a3.5 3.5 0 0 1 .208-.472l.61-1.22h.684zM5.865 40.366H.02v-4.954h19.713v4.966h-5.731v15.63h-8.14zm18.773-4.954h8.592l10.01 20.596h-9.407l-1.77-4.07h-8.789l-1.868 4.07h-6.289zm5.853 12.032L27.68 41.25l-2.85 6.183zm13.396-11.999h13.595c2.116 0 4.261.122 6.008 1.05 1.876.989 2.97 2.674 2.97 4.347 0 2.141-1.876 3.977-4.717 4.477v.041c3.212.432 5.393 2.223 5.393 4.677a5.33 5.33 0 0 1-2.849 4.799c-2.145 1.148-5.153 1.172-7.664 1.172H43.887zm11.287 7.868c.814 0 1.79.04 2.389-.383a1.74 1.74 0 0 0 .814-1.36c0-1.526-1.714-1.73-3.342-1.73h-3.313v3.46zm.248 8.092c.843 0 1.787.044 2.47-.379a1.71 1.71 0 0 0 1.01-1.42c0-.705-.517-1.32-1.339-1.629a7.7 7.7 0 0 0-2.475-.268H51.73v3.704zM.02 15.545h12.191c2.088 0 4.408.211 6.175 1.078 1.998.936 2.939 2.512 2.939 4.23 0 2.316-1.4 3.716-4.23 4.668l4.335 7.734h-8.177l-3.484-6.777h-2.3v6.756H.02zm10.12 7.147c1.607 0 3.536-.179 3.536-1.697a1.63 1.63 0 0 0-1.148-1.457 6.5 6.5 0 0 0-2.108-.228H7.469v3.378zm11.653 2.044c-.13-6.029 5.291-9.77 11.629-9.77 7.143 0 11.519 3.949 11.519 9.977v.965H29.677c0 1.986.908 4.156 4.477 4.156 2.097 0 3.395-.928 3.822-1.966h6.798c-1.115 3.895-5.751 5.938-10.835 5.938-6.619-.004-12.276-3.252-12.146-9.3m15.487-2.41c0-1.8-.814-3.663-3.822-3.663-2.816 0-3.781 1.966-3.781 3.663zm8.874-6.781h8.845c3.451 0 6.211.338 8.792 2.157 2.515 1.77 3.663 4.192 3.663 6.704a8.11 8.11 0 0 1-3.31 6.423c-2.368 1.84-5.34 2.405-8.665 2.405h-9.325zm8.421 13.623c.973 0 1.608.053 2.512-.321a4 4 0 0 0 1.575-1.148 5.32 5.32 0 0 0 1.115-3.415 5.46 5.46 0 0 0-1.47-3.716c-1.151-1.059-2.262-1.006-3.943-1.006h-.814v9.606z"></path><path fill="#C41230" d="M57.42 9.769c0 .46.623 1.013 1.148 1.221.437.163.902.238 1.368.22 1.115 0 2.035-.269 2.035-.916 0-.79-.936-.965-1.97-1.115-2.813-.407-6.757-.875-6.757-4.026 0-2.935 3.204-4.428 6.606-4.428 5.45 0 6.896 3.02 6.896 3.89h-4.03a1.32 1.32 0 0 0-.745-1.045 3.7 3.7 0 0 0-1.587-.407c-1.502 0-2.349.313-2.349 1.005 0 .562.761.843 1.856 1.03 2.85.488 7.253.66 7.253 4.14 0 1.766-1.53 4.338-7.212 4.338-5.475 0-6.468-3.158-6.468-3.944zm-13.184 3.594h5.125V1.046h-5.124zm8.955-10.782V0h-2.894v2.442h1.417l-.708 1.832h.643zM36.373 8.788l-.106-.24-3.835-7.477h-6.028L33.088 13.4h4.477l6.106-12.33h-3.615L36.47 8.548zm-8.426-.513H17.584c0 1.604 1.355 2.809 3.163 2.809a3.18 3.18 0 0 0 2.743-1.315h4.131c-1.351 3.101-3.968 3.985-7.542 3.985-4.644 0-7.93-2.516-7.93-6.513 0-4.257 3.237-6.512 7.93-6.512 5.25 0 7.884 3.402 7.884 6.675q.023.436-.016.871M22.59 5.8c0-1.47-.932-2.466-2.609-2.466A2.37 2.37 0 0 0 17.576 5.8zm-20.909.464a.606.606 0 0 0-.606-.606H0v1.22h1.075a.606.606 0 0 0 .606-.614"></path><path fill="#C41230" d="M5.564 10.03V1.074H0v2.8q.3-.06.606-.061A3.31 3.31 0 1 1 0 10.375v3.004h12.065v-3.35z"></path><path fill="#C41230" d="M3.42 7.123a2.804 2.804 0 0 0-2.805-2.8q-.311 0-.615.065v.761h1.075a1.115 1.115 0 0 1 .146 2.222l1.067 1.657h-.623L.606 7.38H0v2.478q.301.07.61.07a2.81 2.81 0 0 0 2.81-2.805"></path><path fill="#fff" d="M2.19 6.264A1.115 1.115 0 0 0 1.075 5.15H0v.509h1.075a.61.61 0 0 1 0 1.22H0v.51h.606l1.059 1.648h.602L1.221 7.371a1.12 1.12 0 0 0 .969-1.107"></path><path fill="#fff" d="M.615 3.814A3.4 3.4 0 0 0 0 3.875v.517a2.805 2.805 0 1 1 0 5.466v.517q.305.057.615.057a3.309 3.309 0 1 0 0-6.618"></path></svg>
