<?xml version="1.0" encoding="utf-8"?>
<!-- Generator: Adobe Illustrator 28.0.0, SVG Export Plug-In . SVG Version: 6.00 Build 0)  -->
<svg version="1.1" id="Layer_1" xmlns="http://www.w3.org/2000/svg" xmlns:xlink="http://www.w3.org/1999/xlink" x="0px" y="0px"
	 viewBox="0 0 200 200" style="enable-background:new 0 0 200 200;" xml:space="preserve">
<style type="text/css">
	.st0{fill:none;}
	.st1{enable-background:new    ;}
</style>
<rect x="3.6" y="61.6" class="st0" width="192.8" height="76.8"/>
<g class="st1">
	<path d="M43.4,78.9c-3.8-1.2-7-1.8-9.7-1.8c-2.6,0-4.6,0.5-6.1,1.4c-1.5,0.9-2.3,2.3-2.3,4.1c0,2.3,1.1,4.1,3.2,5.3s5.5,2.5,10,3.8
		c4.5,1.3,8.2,2.6,11.1,3.9s5.4,3.3,7.5,5.9s3.1,6.1,3.1,10.4c0,4.2-1.1,7.8-3.3,10.9c-2.2,3-5.3,5.3-9.2,6.9
		c-3.9,1.6-8.3,2.3-13.3,2.3c-5.3,0-10.6-0.9-15.7-2.8c-5.1-1.9-9.6-4.4-13.3-7.7l5.9-12.1c3.3,3,7.1,5.4,11.5,7.2
		c4.3,1.8,8.3,2.7,11.8,2.7c3.1,0,5.5-0.6,7.2-1.7c1.7-1.1,2.6-2.8,2.6-4.9c0-1.7-0.6-3.1-1.7-4.2c-1.2-1.1-2.6-2-4.4-2.7
		c-1.8-0.7-4.2-1.5-7.4-2.3c-4.5-1.3-8.2-2.5-11-3.8c-2.9-1.3-5.3-3.2-7.4-5.7c-2.1-2.6-3.1-6-3.1-10.2c0-3.9,1.1-7.4,3.2-10.4
		c2.1-3,5.1-5.3,8.9-6.9c3.8-1.6,8.3-2.4,13.3-2.4c4.5,0,9,0.7,13.3,2c4.4,1.3,8.3,3.1,11.7,5.3l-5.7,12.3
		C50.8,81.8,47.2,80.2,43.4,78.9z"/>
	<path d="M119.3,68.9c5.4,2.9,9.6,7,12.7,12.2s4.7,10.9,4.7,17.2c0,6.3-1.6,12.1-4.7,17.3c-3.1,5.2-7.3,9.3-12.7,12.3
		c-5.4,3-11.4,4.5-18,4.5s-12.6-1.5-18-4.5c-5.4-3-9.6-7.1-12.7-12.2s-4.7-11-4.7-17.3c0-6.3,1.6-12.1,4.7-17.2s7.3-9.2,12.7-12.2
		c5.4-2.9,11.4-4.4,18-4.4C107.9,64.5,113.9,66,119.3,68.9z M91.4,80.3c-3.1,1.8-5.6,4.4-7.4,7.6c-1.8,3.2-2.7,6.7-2.7,10.5
		c0,3.9,0.9,7.4,2.8,10.6c1.8,3.2,4.3,5.7,7.4,7.6s6.5,2.8,10.1,2.8c3.6,0,7-0.9,10-2.8c3-1.8,5.5-4.4,7.2-7.6
		c1.8-3.2,2.7-6.8,2.7-10.7c0-3.8-0.9-7.3-2.7-10.5c-1.8-3.2-4.2-5.7-7.2-7.6c-3-1.8-6.4-2.8-10-2.8C97.9,77.5,94.5,78.4,91.4,80.3z
		"/>
	<path d="M146.5,65.5h47.3l-0.1,12.3h-32.3V94H191v12.4h-29.7v24.9h-14.9V65.5z"/>
</g>
</svg>
