<?xml version="1.0" encoding="utf-8"?>
<!-- Generator: Adobe Illustrator 18.1.1, SVG Export Plug-In . SVG Version: 6.00 Build 0)  -->
<svg version="1.1" id="Layer_1" xmlns="http://www.w3.org/2000/svg" xmlns:xlink="http://www.w3.org/1999/xlink" x="0px" y="0px"
	 width="89.7px" height="40px" viewBox="152 377.2 89.7 40" enable-background="new 152 377.2 89.7 40" xml:space="preserve">
<path fill="#000099" d="M239.4,386.5c-0.1-0.1-0.1-0.1-0.2-0.1l-2.5,0l1.7-8.3c0-0.1,0-0.2-0.1-0.2c-0.1-0.1-0.2-0.1-0.3,0
	l-13.5,6.8c-0.1,0-0.1,0.1-0.1,0.2l-0.4,1.7l-51.4,0l6.1-9c0.1-0.1,0.1-0.2,0-0.2c-0.1-0.1-0.1-0.1-0.2-0.1h-16.4
	c-0.1,0-0.1,0-0.2,0.1l-6.6,9.1c-0.7,0.9-2.5,3.3-2.2,6.2c0.2,2.3,1.3,3.9,1.9,4.5l-2.9,4c-0.1,0.1-0.1,0.1,0,0.2l5.5,15.8
	c0,0.1,0.1,0.1,0.2,0.2c0.1,0,0.2,0,0.2-0.1l9.1-12.4c1.2,1.5,3.6,3.6,8.1,3.5c1.4,0,2.6-0.2,3.5-0.4c0,0,0.1,0.1,0.2,0.1l53.3,0
	c0.1,0,0.2-0.1,0.2-0.2l1.9-9.1l2.5,0c0.1,0,0.2-0.1,0.2-0.2l2.6-11.7C239.5,386.6,239.4,386.6,239.4,386.5z"/>
<g>
	<path fill="#FFFFFF" d="M165.6,410.8h2.4c0.9,0,1.3,0.5,1.1,1.2c-0.1,0.4-0.4,0.8-0.9,1c0.1,0.6,0.1,1.1,0.3,1.7h-1.6l-0.1-2.2
		c0.1,0,0.2,0,0.3,0c0.3,0,0.6-0.1,0.7-0.4c0.1-0.3-0.1-0.3-0.4-0.3h-0.5l-0.7,2.9h-1.4L165.6,410.8z"/>
	<path fill="#FFFFFF" d="M171.3,412.8l0.6-0.9h0l0.1,0.9H171.3z M170.1,414.7l0.6-0.9h1.4l0.1,0.9h1.6c-0.3-1.3-0.5-2.6-0.7-3.9
		h-1.8c-0.9,1.3-1.8,2.6-2.8,3.9H170.1z"/>
	<path fill="#FFFFFF" d="M177.2,414.7c-0.4,0-0.9,0.1-1.1,0.1c-1.2,0-2.3-0.6-1.9-2c0.4-1.4,1.7-2,2.9-2c0.3,0,0.7,0.1,1,0.1
		L178,412c-0.3-0.1-0.6-0.1-0.9-0.1c-0.9,0-1.3,0.6-1.4,1c-0.1,0.6,0.2,0.9,0.7,0.9c0.5,0,0.9-0.1,1.2-0.1L177.2,414.7z"/>
	<path fill="#FFFFFF" d="M178.9,410.8h1.5l-1,3.9h-1.5L178.9,410.8z"/>
	<path fill="#FFFFFF" d="M181.2,410.8h1.8l0.6,2.1h0l0.5-2.1h1.3l-1,3.9h-1.8l-0.7-2.1h0l-0.5,2.1h-1.3L181.2,410.8z"/>
	<path fill="#FFFFFF" d="M189.8,412.4l-0.6,2.2c-0.6,0.1-1.5,0.1-1.8,0.1c-1.2,0-2.3-0.6-1.9-2c0.4-1.4,1.7-2,2.9-2
		c0.5,0,1,0.1,1.4,0.1l-0.2,1.1c-0.4-0.1-0.8-0.2-1.2-0.2c-0.8,0-1.3,0.4-1.5,1.1c-0.1,0.6,0.1,0.9,0.6,0.9c0.1,0,0.3,0,0.4,0
		l0.1-0.3h-0.4l0.3-1L189.8,412.4L189.8,412.4z"/>
	<path fill="#FFFFFF" d="M195.4,414.7H192l1-3.9h3.4l-0.3,1h-1.9l-0.1,0.4h1.6l-0.3,1h-1.6l-0.1,0.4h1.9L195.4,414.7z"/>
	<path fill="#FFFFFF" d="M199.1,411.8c0.5,0,0.8,0.4,0.7,1c-0.1,0.6-0.7,0.9-1.1,0.9s-0.8-0.4-0.7-0.9
		C198.1,412.2,198.6,411.8,199.1,411.8z M200.6,413.7L200.6,413.7c0.3-0.2,0.6-0.7,0.6-0.9c0.4-1.4-0.7-2-1.9-2
		c-1.2,0-2.6,0.6-2.9,2c-0.4,1.4,0.7,2,1.9,2c0.4,0,1.7-0.1,2.5-0.2l0.4-1.1L200.6,413.7z"/>
	<path fill="#FFFFFF" d="M203.8,410.8l-0.5,2.1c-0.1,0.4-0.1,0.7,0.3,0.7c0.4,0,0.6-0.3,0.7-0.7l0.5-2.1h1.5l-0.7,2.8
		c-0.1,0.6-0.9,1.2-2.3,1.2c-1.4,0-1.9-0.6-1.7-1.2l0.7-2.8H203.8z"/>
	<path fill="#FFFFFF" d="M207.1,410.8h1.5l-1,3.9h-1.5L207.1,410.8z"/>
	<path fill="#FFFFFF" d="M209.4,410.8h2.3c0.5,0,1.1,0.4,0.8,1.3c-0.2,0.7-0.9,1.2-1.7,1.2c-0.1,0-0.2,0-0.3,0l-0.1-0.9h0.2
		c0.2,0,0.4-0.1,0.5-0.3c0.1-0.3-0.1-0.3-0.3-0.3h-0.3l-0.7,2.9h-1.4L209.4,410.8z"/>
	<path fill="#FFFFFF" d="M212.3,414.7l1-3.9h2l-0.1,2.1h0l1-2.1h2l-1,3.9h-1.2l0.6-2.6h0l-1.2,2.6h-1.3l0.1-2.6h0l-0.6,2.6H212.3z"
		/>
	<path fill="#FFFFFF" d="M221.3,414.7h-3.4l1-3.9h3.4l-0.3,1h-1.9l-0.1,0.4h1.6l-0.3,1h-1.6l-0.1,0.4h1.9L221.3,414.7z"/>
	<path fill="#FFFFFF" d="M223.1,410.8h1.8l0.6,2.1h0l0.5-2.1h1.3l-1,3.9h-1.7l-0.7-2.1h0l-0.5,2.1h-1.3L223.1,410.8z"/>
	<path fill="#FFFFFF" d="M227.7,410.8h3.9l-0.3,1h-1.2l-0.7,2.8h-1.5l0.7-2.8h-1.2L227.7,410.8z"/>
</g>
<g>
	<path fill="#FFFFFF" d="M240.3,380.8c-0.6,0-1.1-0.5-1.1-1.1c0-0.6,0.5-1.1,1.1-1.1c0.6,0,1.1,0.5,1.1,1.1
		C241.4,380.3,240.9,380.8,240.3,380.8z M240.3,381c0.8,0,1.4-0.6,1.4-1.4c0-0.8-0.6-1.4-1.4-1.4c-0.8,0-1.4,0.6-1.4,1.4
		S239.6,381,240.3,381z"/>
	<path fill="#FFFFFF" d="M240.6,379.8c0.3,0,0.4-0.1,0.4-0.4c0-0.2,0-0.3-0.2-0.4c-0.1-0.1-0.3-0.1-0.4-0.1h-0.7v1.4h0.3v-0.6h0.3
		l0.3,0.6h0.3L240.6,379.8z M240,379.6v-0.4h0.4c0.1,0,0.3,0,0.3,0.2c0,0.2-0.1,0.2-0.3,0.2H240z"/>
</g>
<path fill="#FFFFFF" d="M236.3,388.3c-0.1-0.1-0.1-0.1-0.2-0.1l-2.5,0l1.4-6.6c0-0.1,0-0.2-0.1-0.2c-0.1-0.1-0.2-0.1-0.3,0l-8.9,4.4
	c-0.1,0-0.1,0.1-0.1,0.2l-0.5,2.3l-13.6,0c-0.1,0-0.1,0-0.2,0.1l-1.6,2.2l-0.7-2.2c0-0.1-0.1-0.2-0.2-0.2H195c-0.1,0-0.1,0-0.2,0.1
	l-1.7,2.3l-0.7-2.2c0-0.1-0.1-0.2-0.2-0.2h-21.7c-0.1,0-0.2,0.1-0.2,0.2l-0.6,2.6c-0.5-0.7-1.2-1.6-1.5-1.9l7.3-10.2
	c0.1-0.1,0.1-0.2,0-0.3c0-0.1-0.1-0.1-0.2-0.1h-12.5c-0.1,0-0.1,0-0.2,0.1c-0.1,0.1-6,8.4-6.1,8.5c-0.6,0.7-2,2.7-1.8,4.8
	c0.2,1.9,1.2,3.1,1.5,3.6l0.2,0.2l0.7,0.9l-3.2,4.3c0,0.1-0.1,0.1,0,0.2l4.1,12.1c0,0.1,0.1,0.1,0.2,0.2c0.1,0,0.2,0,0.2-0.1
	l9.2-12.9c0,0.1,0,0.3,0,0.4c0.1,1.7,1.7,4.9,7,4.9c3.1,0,5.1-0.9,6.4-1.9l-0.3,1.3c0,0.1,0,0.1,0,0.2c0,0.1,0.1,0.1,0.2,0.1l49,0
	c0.1,0,0.2-0.1,0.2-0.2l1.9-9.1l2.5,0c0.1,0,0.2-0.1,0.2-0.2l1.7-7.5C236.4,388.4,236.4,388.4,236.3,388.3z"/>
<g>
	<path fill="#FF0000" d="M183.7,389.9c0-0.1-0.1-0.1-0.2-0.1h-4.5c-0.1,0-0.2,0.1-0.2,0.2l-2,9.3c0,0.1-0.3,1.3-1.4,1.3
		c-0.3,0-0.5-0.1-0.6-0.3c-0.2-0.3-0.1-0.8-0.1-0.9c0,0,2.1-9.3,2.1-9.3c0-0.1,0-0.1-0.1-0.2c0-0.1-0.1-0.1-0.2-0.1h-4.5
		c-0.1,0-0.2,0.1-0.2,0.2l-2.4,10.7c0,0,0,0,0,0.1c0,0,0.3,3.3,5.3,3.3c5.6,0,6.8-3.2,6.8-3.3l2.4-10.7
		C183.7,390.1,183.7,390,183.7,389.9z"/>
	<path fill="#FF0000" d="M224,390.1c0-0.1-0.1-0.1-0.2-0.1h-4.5c-0.1,0-0.2,0.1-0.2,0.2l-2.9,13.3c0,0.1,0,0.1,0.1,0.2
		c0,0.1,0.1,0.1,0.2,0.1h4.5c0.1,0,0.2-0.1,0.2-0.2l2.9-13.3C224,390.2,224,390.2,224,390.1z"/>
	<path fill="#FF0000" d="M200.6,390.1c0-0.1-0.1-0.1-0.2-0.1h-4.5c-0.1,0-0.1,0-0.2,0.1l-3.2,4.3l-1.3-4.1c0-0.1-0.1-0.2-0.2-0.2
		h-4.8c-0.1,0-0.2,0.1-0.2,0.2l-3.2,13.3c0,0.1,0,0.1,0,0.2c0,0.1,0.1,0.1,0.2,0.1h4.6c0.1,0,0.2-0.1,0.2-0.2l1.7-6.4l1.3,3.6
		c0,0.1,0.1,0.1,0.2,0.2c0.1,0,0.2,0,0.2-0.1l2.8-3.6l-1.3,6.1c0,0.1,0,0.1,0.1,0.2c0,0.1,0.1,0.1,0.2,0.1h4.3
		c0.1,0,0.2-0.1,0.2-0.2l3.2-13.4C200.6,390.2,200.6,390.1,200.6,390.1z"/>
	<path fill="#FF0000" d="M217.2,390.1c0-0.1-0.1-0.1-0.2-0.1h-4.5c-0.1,0-0.1,0-0.2,0.1l-3.2,4.3l-1.3-4.1c0-0.1-0.1-0.2-0.2-0.2
		h-4.8c-0.1,0-0.2,0.1-0.2,0.2l-3.2,13.3c0,0.1,0,0.1,0,0.2c0,0.1,0.1,0.1,0.2,0.1h4.6c0.1,0,0.2-0.1,0.2-0.2l1.7-6.4l1.3,3.6
		c0,0.1,0.1,0.1,0.2,0.2c0.1,0,0.2,0,0.2-0.1l2.8-3.6l-1.3,6.1c0,0.1,0,0.1,0.1,0.2c0,0.1,0.1,0.1,0.2,0.1h4.3
		c0.1,0,0.2-0.1,0.2-0.2l3.2-13.4C217.2,390.2,217.2,390.1,217.2,390.1z"/>
	<path fill="#FF0000" d="M167.9,391.6l-1.9-2.4l6.1-8.5c0.1-0.1,0.1-0.2,0-0.3c0-0.1-0.1-0.1-0.2-0.1h-8.3c-0.1,0-0.1,0-0.2,0.1
		l-5.5,7.7c0,0-0.1,0.1-0.1,0.1c-0.4,0.6-1.6,2.1-1.5,3.6c0.1,1.4,0.9,2.3,1.2,2.7c0,0.1,0.1,0.1,0.1,0.1c0.7,0.9,1.3,1.7,1.6,2
		l-3.4,4.7c0,0.1-0.1,0.1,0,0.2l2.7,8.1c0,0.1,0.1,0.1,0.2,0.2c0.1,0,0.2,0,0.2-0.1l8.5-11.7l0.1-0.1c0.4-0.5,1.5-2.1,1.5-3.6
		c0-1.4-0.7-2.2-0.9-2.5C168,391.7,167.9,391.7,167.9,391.6z"/>
	<path fill="#FF0000" d="M234.2,390c-0.1-0.1-0.1-0.1-0.2-0.1l-2.4,0l1.1-5.2c0-0.1,0-0.2-0.1-0.2c-0.1-0.1-0.2-0.1-0.3,0l-5,2.5
		c-0.1,0-0.1,0.1-0.1,0.2l-0.6,2.9h-1c-0.1,0-0.2,0.1-0.2,0.2l-0.9,4c0,0.1,0,0.1,0.1,0.2c0,0.1,0.1,0.1,0.2,0.1h0.9l-1.9,9
		c0,0.1,0,0.1,0.1,0.2c0,0.1,0.1,0.1,0.2,0.1h4.6c0.1,0,0.2-0.1,0.2-0.2l1.9-9.1l2.5,0c0.1,0,0.2-0.1,0.2-0.2l0.9-4.1
		C234.3,390.1,234.3,390.1,234.2,390z"/>
</g>
</svg>
